<?xml version="1.0" standalone="no"?>
<!DOCTYPE svg PUBLIC "-//W3C//DTD SVG 20010904//EN"
 "http://www.w3.org/TR/2001/REC-SVG-20010904/DTD/svg10.dtd">
<svg version="1.0" xmlns="http://www.w3.org/2000/svg"
 width="412.000000pt" height="104.000000pt" viewBox="0 0 412.000000 104.000000"
 preserveAspectRatio="xMidYMid meet">

<g transform="translate(0.000000,104.000000) scale(0.100000,-0.100000)"
fill="#000000" stroke="none">
<path d="M704 884 c-102 -36 -174 -139 -182 -260 -6 -93 15 -158 73 -222 98
-109 259 -128 373 -45 34 26 42 60 15 70 -9 4 -36 -5 -62 -19 -62 -35 -112
-43 -169 -27 -60 17 -133 87 -150 145 -34 115 12 235 108 284 72 36 155 32
212 -10 33 -25 71 -23 76 3 5 26 -16 47 -73 73 -59 28 -156 31 -221 8z"/>
<path d="M2087 894 c-4 -4 -7 -130 -7 -279 0 -229 2 -275 15 -285 26 -21 220
-9 280 18 108 49 159 135 160 267 0 93 -22 151 -77 207 -62 61 -98 73 -238 76
-69 2 -129 0 -133 -4z m279 -90 c131 -81 134 -288 6 -379 -39 -27 -53 -30
-133 -33 l-89 -4 0 227 0 228 84 -5 c72 -4 92 -9 132 -34z"/>
<path d="M2671 881 c-7 -12 -11 -113 -11 -275 0 -218 2 -257 16 -270 8 -9 21
-16 28 -16 34 0 36 25 34 301 l-3 274 -27 3 c-18 2 -30 -3 -37 -17z"/>
<path d="M2857 894 c-4 -4 -7 -130 -7 -279 0 -237 2 -274 16 -286 11 -9 20
-10 32 -2 14 8 17 31 20 132 l3 121 119 0 c104 0 121 2 129 18 6 11 6 24 0 35
-9 15 -27 17 -130 17 l-120 0 3 93 3 92 165 5 165 5 0 25 0 25 -196 3 c-107 1
-198 -1 -202 -4z"/>
<path d="M3296 884 c-7 -19 -7 -21 109 -200 l95 -147 0 -96 c0 -96 8 -121 36
-121 33 0 44 31 44 126 l0 94 100 155 c107 166 123 209 73 203 -23 -3 -41 -25
-118 -145 -49 -79 -92 -143 -95 -143 -3 0 -39 55 -80 121 -41 67 -83 132 -93
145 -21 27 -62 32 -71 8z"/>
<path d="M2202 133 l-2 -53 38 2 c36 1 36 1 5 5 -30 4 -32 7 -36 51 l-3 47 -2
-52z"/>
<path d="M2393 135 c-1 -27 1 -43 3 -35 3 9 14 20 26 25 12 6 23 17 25 25 3
10 1 9 -7 -2 -16 -27 -38 -22 -43 10 -2 15 -4 5 -4 -23z"/>
<path d="M2723 135 c0 -27 2 -38 4 -22 2 15 2 37 0 50 -2 12 -4 0 -4 -28z"/>
<path d="M2863 135 c0 -27 2 -38 4 -22 2 15 2 37 0 50 -2 12 -4 0 -4 -28z"/>
<path d="M2903 135 c0 -27 2 -38 4 -22 2 15 2 37 0 50 -2 12 -4 0 -4 -28z"/>
<path d="M2940 135 c0 -27 2 -46 4 -44 8 8 10 78 3 85 -4 4 -7 -14 -7 -41z"/>
<path d="M3013 135 c0 -27 2 -38 4 -22 2 15 2 37 0 50 -2 12 -4 0 -4 -28z"/>
<path d="M3053 135 c0 -27 2 -40 4 -27 3 17 9 22 21 18 16 -6 16 -5 1 7 -9 7
-19 21 -22 32 -2 11 -5 -2 -4 -30z"/>
<path d="M3259 163 c-13 -16 -12 -17 4 -4 16 13 21 21 13 21 -2 0 -10 -8 -17
-17z"/>
<path d="M3482 133 c-2 -45 1 -53 16 -53 11 0 13 3 5 8 -6 4 -13 28 -16 52
l-4 45 -1 -52z"/>
<path d="M3582 133 l-2 -53 38 2 c36 1 36 1 5 5 -30 4 -32 7 -36 51 l-3 47 -2
-52z"/>
<path d="M3352 130 c0 -14 2 -19 5 -12 2 6 2 18 0 25 -3 6 -5 1 -5 -13z"/>
<path d="M3441 134 c0 -11 3 -14 6 -6 3 7 2 16 -1 19 -3 4 -6 -2 -5 -13z"/>
<path d="M2296 115 c-9 -26 -7 -32 5 -12 6 10 9 21 6 23 -2 3 -7 -2 -11 -11z"/>
<path d="M2133 83 c9 -2 25 -2 35 0 9 3 1 5 -18 5 -19 0 -27 -2 -17 -5z"/>
<path d="M3288 83 c7 -3 16 -2 19 1 4 3 -2 6 -13 5 -11 0 -14 -3 -6 -6z"/>
<path d="M3388 83 c7 -3 16 -2 19 1 4 3 -2 6 -13 5 -11 0 -14 -3 -6 -6z"/>
</g>
</svg>
